<?xml version="1.0" standalone="no"?>
<!DOCTYPE svg PUBLIC "-//W3C//DTD SVG 20010904//EN"
 "http://www.w3.org/TR/2001/REC-SVG-20010904/DTD/svg10.dtd">
<svg version="1.0" xmlns="http://www.w3.org/2000/svg"
 width="512.000000pt" height="512.000000pt" viewBox="0 0 512.000000 512.000000"
 preserveAspectRatio="xMidYMid meet">

<g transform="translate(0.000000,512.000000) scale(0.100000,-0.100000)"
fill="#000000" stroke="none">
<path d="M415 4466 c-94 -41 -124 -168 -58 -247 49 -58 58 -59 446 -59 l355 0
9 -37 c6 -21 144 -542 309 -1157 320 -1201 307 -1162 381 -1192 48 -21 2318
-21 2366 0 73 30 66 9 331 982 194 713 247 917 243 948 -6 43 -29 79 -71 110
-27 21 -29 21 -1446 21 -1417 0 -1419 0 -1446 -21 -53 -39 -69 -71 -69 -134 0
-63 16 -95 69 -134 27 -21 32 -21 1312 -24 1216 -2 1285 -3 1280 -20 -10 -34
-386 -1413 -386 -1418 0 -2 -449 -4 -999 -4 l-999 0 -9 38 c-6 20 -144 541
-309 1156 -320 1201 -307 1162 -381 1192 -47 20 -883 20 -928 0z"/>
<path d="M2121 1584 c-253 -68 -410 -331 -346 -579 67 -256 329 -415 580 -350
256 67 415 329 350 578 -67 259 -333 419 -584 351z m182 -318 c103 -43 128
-177 48 -257 -65 -65 -157 -65 -222 0 -124 123 13 325 174 257z"/>
<path d="M3721 1584 c-253 -68 -410 -331 -346 -579 67 -256 329 -415 580 -350
256 67 415 329 350 578 -67 259 -333 419 -584 351z m182 -318 c103 -43 128
-177 48 -257 -65 -65 -157 -65 -222 0 -124 123 13 325 174 257z"/>
</g>
</svg>
