<?xml version="1.0" standalone="no"?>
<!DOCTYPE svg PUBLIC "-//W3C//DTD SVG 20010904//EN"
 "http://www.w3.org/TR/2001/REC-SVG-20010904/DTD/svg10.dtd">
<svg version="1.0" xmlns="http://www.w3.org/2000/svg"
 width="3059.000000pt" height="3051.000000pt" viewBox="0 0 3059.000000 3051.000000"
 preserveAspectRatio="xMidYMid meet">

<g transform="translate(0.000000,3051.000000) scale(0.100000,-0.100000)"
fill="#C0C0C0" stroke="none">
<path d="M15296 30483 c-3 -3 -6 -73 -6 -155 l0 -148 -187 0 c-530 0 -1376
-71 -2098 -176 -911 -133 -2007 -424 -2960 -785 -1237 -469 -2266 -1016 -3396
-1804 -518 -362 -1291 -998 -1682 -1384 -378 -373 -864 -895 -1123 -1206 -633
-760 -1210 -1618 -1703 -2535 -567 -1052 -1100 -2466 -1366 -3623 -236 -1027
-367 -2025 -395 -3012 -5 -197 -10 -367 -10 -377 0 -16 -14 -18 -150 -20 -200
-4 -200 -22 0 -26 136 -2 150 -4 150 -20 0 -213 28 -825 51 -1117 77 -990 284
-2120 549 -3004 389 -1296 947 -2573 1557 -3561 645 -1046 1171 -1739 1909
-2515 476 -501 674 -694 1009 -982 646 -554 1145 -928 1829 -1367 1285 -824
2696 -1441 4256 -1860 736 -198 1386 -316 2240 -405 421 -45 1022 -81 1332
-81 l187 0 3 -155 c4 -207 22 -207 26 0 l3 155 192 0 c782 0 2026 136 2842
311 1510 324 3062 911 4325 1637 1412 811 2481 1657 3579 2832 1192 1275 2182
2831 2868 4505 686 1675 1078 3537 1109 5257 l6 368 157 2 c209 4 209 22 0 26
l-157 2 -6 378 c-31 1715 -426 3589 -1109 5257 -478 1168 -1135 2330 -1869
3308 -930 1239 -2098 2379 -3288 3212 -1088 761 -2210 1357 -3390 1800 -989
371 -2064 656 -2980 789 -725 105 -1562 176 -2087 176 l-193 0 0 149 c0 136
-5 172 -24 154z m-6 -1043 l0 -630 -44 0 c-72 0 -233 -37 -356 -82 -131 -48
-249 -120 -369 -225 -210 -185 -351 -479 -367 -768 -5 -82 -11 -125 -18 -125
-97 0 -770 -89 -797 -105 -6 -5 -7 -11 -2 -16 6 -6 86 2 204 20 209 33 598 75
607 67 3 -3 8 -41 13 -83 9 -99 56 -245 119 -374 123 -251 306 -415 605 -541
112 -47 280 -88 361 -88 l44 0 2 -1082 c2 -714 6 -1083 13 -1083 7 0 11 369
13 1083 l2 1082 49 0 c139 0 380 80 563 186 267 155 491 512 524 837 l7 67 34
0 c20 0 193 -20 387 -45 346 -45 970 -155 1109 -196 64 -19 94 -18 82 1 -21
34 -696 162 -1181 225 -194 25 -367 45 -386 45 l-35 0 -12 123 c-17 173 -57
325 -116 434 -102 188 -255 360 -412 461 -140 91 -422 182 -564 182 l-49 0 0
630 0 630 193 0 c525 0 1362 -71 2087 -176 681 -99 1398 -268 2205 -521 1409
-442 2781 -1126 4085 -2038 1190 -833 2358 -1973 3288 -3212 582 -776 1132
-1695 1569 -2624 427 -907 713 -1730 982 -2829 236 -966 379 -2059 397 -3032
l6 -378 -630 0 -630 0 -6 38 c-3 20 -8 64 -11 97 -20 187 -116 426 -223 558
-88 106 -206 215 -299 275 -150 98 -422 182 -589 182 l-73 0 -5 43 c-3 23 -8
80 -11 127 -13 178 -107 779 -174 1110 -126 626 -365 1459 -559 1945 -52 132
-100 246 -105 253 -6 8 -14 9 -19 4 -5 -5 32 -111 90 -258 197 -492 435 -1320
563 -1954 68 -339 162 -938 174 -1115 3 -49 8 -103 10 -120 l5 -30 -118 -22
c-309 -59 -531 -191 -734 -440 -108 -133 -204 -372 -223 -558 -3 -33 -8 -77
-11 -97 l-6 -38 -1081 -2 c-713 -2 -1082 -6 -1082 -13 0 -7 369 -11 1082 -13
l1081 -2 6 -38 c3 -20 8 -64 11 -97 11 -106 61 -278 110 -375 79 -157 248
-341 410 -447 111 -72 275 -135 434 -165 64 -12 117 -23 119 -24 7 -4 -24
-274 -68 -579 -97 -671 -253 -1344 -477 -2055 -116 -371 -270 -768 -493 -1274
-76 -175 -127 -303 -122 -308 5 -5 13 -3 19 4 21 26 268 600 393 913 313 782
586 1829 714 2740 39 270 66 501 66 553 0 8 21 12 74 12 167 0 438 84 589 182
92 59 211 169 297 273 111 136 205 369 225 560 3 33 8 75 11 93 l5 32 631 0
630 0 -7 -378 c-26 -1454 -320 -3055 -829 -4512 -479 -1372 -1234 -2785 -2118
-3963 -930 -1239 -2098 -2379 -3288 -3212 -852 -596 -1698 -1075 -2623 -1487
-1123 -499 -2506 -903 -3667 -1072 -725 -105 -1562 -176 -2087 -176 l-193 0 0
630 0 630 49 0 c142 0 424 91 564 182 157 101 310 273 412 461 59 109 99 261
116 435 l12 122 35 0 c57 0 735 89 760 100 28 12 18 34 -12 26 -37 -9 -722
-96 -759 -96 l-34 0 -7 68 c-33 324 -257 681 -524 836 -183 106 -424 186 -563
186 l-49 0 -2 1080 c-2 712 -6 1080 -13 1080 -7 0 -11 -368 -13 -1080 l-2
-1080 -44 0 c-81 0 -249 -41 -361 -88 -299 -126 -482 -290 -605 -541 -63 -129
-110 -275 -119 -374 -5 -42 -10 -80 -13 -83 -3 -2 -97 5 -209 16 -304 31 -870
123 -1143 186 -160 37 -242 52 -249 45 -15 -15 16 -25 258 -80 257 -58 833
-151 1120 -181 110 -11 204 -20 211 -20 7 0 13 -43 18 -125 16 -289 157 -583
367 -768 120 -105 238 -177 369 -225 123 -45 284 -82 356 -82 l44 0 0 -630 0
-630 -187 0 c-530 0 -1376 71 -2098 176 -895 131 -2012 425 -2920 770 -1196
454 -2240 1011 -3356 1789 -353 247 -762 569 -1204 948 -335 288 -533 481
-1009 982 -744 782 -1272 1480 -1921 2535 -608 989 -1134 2192 -1515 3461
-265 884 -472 2014 -549 3004 -23 292 -51 904 -51 1117 0 17 31 18 629 18
l629 0 6 -37 c3 -21 8 -65 11 -97 10 -89 70 -277 122 -380 89 -177 243 -346
404 -444 167 -101 430 -182 595 -182 l73 0 6 -32 c3 -18 19 -152 35 -298 82
-711 206 -1327 399 -1972 168 -561 379 -1157 419 -1182 26 -16 19 19 -19 101
-58 125 -253 699 -370 1091 -193 645 -317 1262 -399 1972 -16 146 -32 277 -34
291 -5 25 -3 25 109 47 389 76 671 284 837 617 60 119 113 284 123 380 3 33 8
75 11 92 l5 33 1082 2 c713 2 1082 6 1082 13 0 7 -369 11 -1082 13 l-1081 2
-6 38 c-3 20 -8 66 -12 102 -9 87 -71 274 -129 390 -160 318 -448 527 -830
602 -112 22 -114 22 -109 47 2 14 18 145 34 291 105 917 276 1653 613 2640
114 333 307 810 451 1114 60 126 72 167 44 150 -17 -11 -131 -259 -275 -599
-234 -554 -492 -1354 -643 -1993 -89 -379 -167 -843 -220 -1302 -16 -146 -32
-280 -35 -297 l-6 -33 -73 0 c-100 0 -248 -32 -386 -82 -276 -102 -483 -288
-610 -546 -57 -117 -116 -300 -125 -387 -3 -33 -8 -77 -11 -97 l-6 -38 -629 0
c-598 0 -629 1 -629 18 0 10 5 180 10 377 28 987 159 1985 395 3012 263 1142
768 2485 1324 3523 344 641 838 1420 1236 1950 448 597 975 1192 1602 1811
223 220 652 592 1068 925 714 570 1717 1210 2570 1637 391 195 962 445 1400
611 635 241 1463 483 2170 635 816 175 1995 305 2808 310 l227 1 0 -630z m2
-1192 c2 -294 7 -453 13 -453 6 0 11 159 13 453 l2 452 50 0 c70 0 262 -43
345 -77 261 -108 540 -423 603 -683 20 -80 49 -307 41 -314 -2 -2 -114 5 -249
14 -385 28 -922 34 -1330 16 -349 -16 -455 -23 -499 -32 l-24 -5 7 118 c11
202 75 372 199 537 104 138 292 286 442 349 84 35 259 75 332 76 l53 1 2 -452z
m763 -634 c127 -8 245 -17 264 -20 l34 -5 -7 -71 c-21 -229 -135 -448 -333
-639 -161 -155 -447 -279 -644 -279 l-49 0 -2 210 c-2 132 -7 210 -13 210 -6
0 -11 -78 -13 -210 l-2 -210 -44 0 c-70 0 -228 36 -313 72 -187 78 -361 209
-467 350 -106 142 -188 346 -199 495 -5 67 -4 71 16 77 22 5 241 19 572 36
234 12 921 3 1200 -16z m-13119 -11361 c-14 -124 -17 -201 -7 -207 16 -10 20
6 31 130 6 65 13 120 16 123 9 10 236 -40 309 -68 230 -89 441 -285 558 -516
51 -103 93 -233 102 -320 3 -33 8 -77 11 -97 l6 -38 -211 -2 c-284 -4 -284
-22 -1 -26 l211 -2 -5 -33 c-3 -17 -8 -59 -11 -92 -9 -87 -50 -216 -102 -319
-117 -233 -328 -428 -558 -517 -73 -28 -300 -78 -309 -68 -10 9 -38 519 -45
789 -4 169 -10 264 -16 263 -24 -6 -11 -597 21 -980 l6 -73 -71 0 c-89 0 -274
39 -366 77 -287 120 -524 384 -608 678 -14 50 -28 111 -31 138 -4 26 -9 67
-12 92 l-5 45 453 2 c294 2 453 7 453 13 0 6 -160 11 -453 13 l-454 2 6 38 c3
20 8 64 11 97 9 84 50 213 101 318 109 224 310 414 539 510 95 39 263 75 358
76 l79 1 -6 -47z m24722 -140 c7 -104 17 -341 23 -527 6 -187 13 -344 16 -349
3 -5 9 -5 15 1 10 10 -6 652 -22 861 -6 68 -10 141 -10 162 l0 39 70 0 c88 0
273 -39 365 -77 142 -59 316 -200 452 -368 87 -107 161 -299 178 -460 3 -33 8
-77 11 -97 l6 -38 -451 -2 c-292 -2 -451 -7 -451 -13 0 -6 159 -11 450 -13
l451 -2 -5 -33 c-3 -17 -8 -59 -11 -92 -17 -161 -91 -353 -178 -460 -136 -168
-310 -309 -452 -368 -92 -38 -277 -77 -365 -77 l-70 0 7 88 c10 119 10 156 -2
162 -11 5 -20 -49 -30 -172 -8 -93 1 -90 -167 -54 -197 42 -343 120 -485 258
-210 203 -303 377 -328 613 -3 33 -8 77 -11 97 l-6 38 209 2 c130 2 208 7 208
13 0 6 -78 11 -208 13 l-209 2 6 38 c3 20 8 64 11 97 11 101 46 226 91 317 97
201 334 426 539 511 71 29 255 75 311 76 l30 1 12 -187z m-12366 -12423 c2
-132 7 -210 13 -210 6 0 11 78 13 210 l2 210 49 0 c197 0 483 -124 644 -279
198 -191 312 -410 333 -639 l7 -71 -34 -5 c-89 -14 -539 -36 -844 -42 -377 -6
-1056 18 -1187 42 -27 5 -27 5 -21 77 11 149 93 353 199 495 171 229 514 416
771 421 l53 1 2 -210z m-922 -825 c36 -3 220 -12 410 -21 408 -18 945 -12
1330 16 135 9 247 16 249 14 8 -7 -21 -234 -41 -314 -63 -260 -342 -575 -603
-683 -83 -34 -275 -77 -345 -77 l-50 0 -2 450 c-2 292 -7 450 -13 450 -6 0
-11 -158 -13 -450 l-2 -450 -45 0 c-66 0 -260 44 -340 77 -150 63 -338 211
-442 349 -124 165 -188 335 -199 537 l-7 118 24 -5 c13 -3 53 -7 89 -11z"/>
<path d="M12912 27435 c-101 -22 -134 -36 -114 -49 5 -3 70 6 143 21 168 33
161 31 154 43 -9 15 -70 11 -183 -15z"/>
<path d="M12440 27330 c-169 -36 -781 -213 -1080 -312 -638 -211 -1370 -529
-1954 -850 -404 -221 -843 -484 -1027 -614 -155 -110 -176 -128 -160 -138 5
-4 72 38 149 93 178 128 629 399 1039 624 593 326 1319 642 1963 855 305 101
925 280 1069 308 91 18 124 31 116 44 -8 12 -11 12 -115 -10z"/>
<path d="M18315 27280 c-8 -14 20 -24 159 -61 77 -20 122 -27 128 -21 14 14 1
20 -140 58 -144 38 -139 37 -147 24z"/>
<path d="M18845 27131 c-9 -15 16 -25 229 -85 255 -73 764 -266 1173 -445 728
-319 1322 -638 1858 -999 288 -195 830 -586 893 -645 21 -21 35 -28 42 -21 16
16 -44 66 -350 291 -658 483 -1197 815 -1800 1111 -637 312 -1388 618 -1817
741 -237 68 -220 64 -228 52z"/>
<path d="M7964 25262 c-84 -54 -196 -154 -186 -164 7 -7 34 9 83 48 40 33 93
73 117 89 42 28 55 47 35 52 -4 1 -27 -10 -49 -25z"/>
<path d="M6325 25159 c-293 -62 -511 -196 -707 -436 -161 -198 -258 -541 -228
-814 16 -148 60 -310 115 -419 45 -89 143 -220 214 -285 l34 -32 -160 -200
c-88 -109 -253 -328 -366 -485 -342 -476 -747 -1122 -720 -1149 13 -13 19 -4
98 141 177 325 692 1076 1012 1476 l156 195 26 -25 c61 -58 209 -143 321 -184
302 -110 550 -110 848 3 138 53 250 124 356 225 225 216 332 433 366 748 13
122 1 256 -36 407 -31 125 -124 317 -193 401 l-51 62 78 60 c90 70 107 87 93
97 -6 3 -51 -26 -101 -66 l-91 -71 -72 69 c-144 137 -342 236 -567 282 -131
27 -298 27 -425 0z m437 -113 c62 -13 145 -37 183 -53 90 -37 235 -135 303
-206 l54 -54 -259 -226 c-290 -253 -683 -643 -979 -972 -104 -115 -201 -224
-215 -241 l-25 -31 -30 26 c-61 55 -164 192 -202 267 -163 329 -116 815 106
1086 134 165 290 289 437 351 185 77 422 97 627 53z m621 -404 c110 -136 173
-304 197 -519 27 -247 -50 -544 -183 -708 -136 -168 -310 -309 -452 -368 -110
-45 -276 -77 -405 -77 -129 0 -296 32 -405 77 -77 32 -226 126 -264 167 -22
24 -23 27 -8 49 8 13 106 125 217 248 312 345 680 711 978 970 145 126 264
229 266 229 2 0 29 -31 59 -68z"/>
<path d="M23865 25159 c-375 -79 -660 -292 -815 -607 -146 -299 -172 -568 -84
-859 111 -365 351 -624 694 -751 227 -83 412 -101 623 -62 193 37 410 136 533
242 l31 27 45 -52 c24 -29 141 -178 259 -332 418 -544 803 -1154 1134 -1795
92 -179 172 -331 178 -338 6 -8 14 -9 20 -3 14 14 -311 634 -516 981 -99 168
-268 436 -375 595 -177 261 -546 758 -676 908 l-50 58 46 47 c166 173 291 447
318 700 15 135 0 271 -45 417 -115 371 -351 636 -679 760 -218 83 -444 105
-641 64z m415 -109 c149 -28 240 -64 355 -141 160 -106 294 -257 377 -424 151
-301 151 -630 1 -929 -45 -90 -135 -216 -191 -269 l-30 -28 -133 158 c-268
318 -985 1031 -1010 1006 -7 -7 50 -66 173 -180 238 -221 627 -624 807 -836
167 -197 166 -170 6 -276 -115 -77 -207 -113 -355 -141 -408 -78 -794 73
-1050 410 -234 308 -271 720 -95 1082 43 87 139 228 156 228 4 0 43 -30 84
-66 51 -45 80 -63 86 -57 7 7 -16 34 -69 81 l-80 70 67 65 c71 69 203 153 304
194 176 70 402 90 597 53z"/>
<path d="M15295 24069 c-10 -26 -1 -269 10 -272 14 -3 19 263 6 276 -7 7 -12
5 -16 -4z"/>
<path d="M15296 23543 c-3 -3 -6 -63 -6 -133 l0 -127 -97 -6 c-54 -4 -146 -7
-205 -7 -182 0 -644 -47 -948 -96 -522 -84 -1043 -227 -1635 -450 -1170 -439
-2386 -1296 -3179 -2239 -542 -646 -867 -1155 -1219 -1915 -308 -664 -555
-1511 -642 -2201 -41 -325 -75 -762 -75 -965 l0 -143 -135 -3 c-82 -2 -135 -7
-135 -13 0 -6 53 -11 135 -13 l135 -3 0 -138 c0 -199 35 -651 75 -971 86 -681
332 -1522 642 -2190 352 -760 677 -1269 1219 -1915 793 -943 2009 -1800 3179
-2239 592 -223 1113 -366 1635 -450 304 -49 766 -96 948 -96 59 0 151 -3 204
-7 l97 -6 3 -131 c4 -175 22 -174 26 2 l3 132 69 0 c39 0 195 7 348 15 748 42
1475 188 2232 449 487 168 1124 470 1540 731 682 427 1168 828 1715 1415 614
659 1140 1490 1490 2355 245 607 392 1098 495 1667 54 292 105 736 115 983 3
83 8 205 11 272 l6 122 129 3 c172 4 171 22 -1 26 -94 2 -130 6 -130 15 0 161
-28 608 -51 825 -80 752 -256 1430 -574 2217 -350 865 -876 1696 -1490 2355
-547 587 -1033 988 -1715 1415 -416 261 -1053 563 -1540 731 -757 261 -1484
407 -2232 449 -153 8 -309 15 -348 15 l-70 0 0 129 c0 118 -6 152 -24 134z
m-6 -423 c0 -27 -3 -50 -7 -50 -153 0 -597 -28 -808 -51 -800 -86 -1382 -235
-2160 -553 -524 -214 -1061 -506 -1477 -803 -518 -368 -897 -698 -1270 -1103
-399 -432 -657 -782 -985 -1330 -281 -469 -545 -1051 -701 -1540 -250 -785
-370 -1455 -388 -2157 l-6 -273 -44 0 -44 0 0 144 c0 203 34 640 75 965 86
682 321 1495 616 2131 349 750 675 1262 1215 1905 659 784 1621 1518 2629
2006 599 289 1409 541 2105 653 400 65 698 91 1188 104 l62 2 0 -50z m448 35
c737 -41 1475 -188 2202 -438 453 -157 1086 -459 1490 -712 682 -427 1168
-828 1715 -1415 1116 -1198 1858 -2835 2034 -4492 23 -217 51 -664 51 -825 0
-9 -16 -13 -49 -13 l-49 0 -6 118 c-3 64 -8 189 -12 277 -23 614 -184 1464
-392 2070 -380 1102 -900 1981 -1693 2856 -572 632 -1370 1229 -2189 1639
-706 353 -1471 610 -2160 725 -319 53 -737 101 -965 109 -88 4 -213 9 -277 12
l-118 6 0 49 0 49 70 0 c39 0 195 -7 348 -15z m-448 -305 l0 -110 -132 0
c-218 0 -640 -37 -938 -81 -525 -78 -1115 -232 -1575 -410 -718 -279 -1403
-661 -1927 -1075 -589 -465 -1112 -1010 -1498 -1559 -352 -500 -534 -826 -794
-1419 -280 -639 -486 -1413 -565 -2126 -16 -146 -32 -332 -35 -415 -4 -82 -9
-205 -12 -272 l-6 -123 -105 0 -105 0 6 273 c22 870 236 1858 574 2652 221
519 444 929 784 1438 380 569 952 1185 1512 1627 768 608 1459 988 2370 1306
710 248 1487 379 2389 402 l57 2 0 -110z m425 94 c228 -8 646 -56 965 -109
497 -83 1054 -245 1565 -455 275 -113 746 -351 1010 -510 638 -384 1248 -877
1694 -1369 542 -598 929 -1158 1261 -1821 337 -674 544 -1296 679 -2045 57
-311 106 -732 115 -980 4 -88 9 -213 12 -277 l6 -118 -110 0 -110 0 -6 123
c-3 67 -8 190 -12 272 -8 213 -56 631 -109 943 -136 811 -505 1781 -967 2544
-361 597 -896 1241 -1398 1683 -740 650 -1364 1032 -2310 1411 -323 130 -622
219 -1075 323 -461 105 -1078 181 -1476 181 l-129 0 0 111 0 111 118 -6 c64
-3 189 -8 277 -12z m-425 -464 c0 -97 -4 -150 -10 -150 -6 0 -122 -5 -258 -10
-486 -21 -970 -95 -1512 -230 -446 -112 -950 -309 -1499 -584 -442 -222 -969
-580 -1326 -900 -586 -525 -983 -987 -1366 -1591 -465 -733 -825 -1650 -964
-2460 -53 -306 -101 -711 -109 -915 -4 -80 -9 -198 -12 -262 l-6 -118 -155 0
-155 0 6 123 c3 67 8 190 12 272 23 585 174 1359 392 2005 149 442 441 1059
678 1435 424 672 813 1137 1384 1654 657 595 1409 1057 2275 1397 712 279
1723 477 2468 483 l157 1 0 -150z m562 130 c511 -38 1009 -129 1599 -295 202
-57 323 -98 510 -174 911 -368 1543 -757 2269 -1396 502 -442 1037 -1086 1398
-1683 457 -755 803 -1663 937 -2464 53 -312 101 -730 109 -943 4 -82 9 -205
12 -272 l6 -123 -151 0 c-98 0 -151 4 -151 10 0 6 -5 122 -10 258 -29 686
-180 1474 -395 2057 -120 324 -251 627 -413 950 -354 709 -945 1453 -1644
2071 -624 551 -1399 998 -2290 1319 -612 221 -1365 366 -2050 395 -136 5 -252
10 -258 10 -6 0 -10 53 -10 150 l0 150 129 0 c71 0 252 -9 403 -20z m-562
-925 c0 -318 -4 -535 -9 -535 -5 0 -112 -5 -238 -10 -630 -29 -1230 -157
-1889 -405 -433 -162 -836 -380 -1279 -690 -641 -449 -1183 -1037 -1625 -1765
-233 -383 -480 -952 -598 -1375 -125 -450 -211 -939 -226 -1295 -4 -74 -9
-183 -12 -242 l-6 -108 -535 0 -535 0 6 118 c3 64 8 182 12 262 8 204 56 609
109 915 79 461 246 1005 449 1469 341 779 872 1554 1462 2137 444 438 746 680
1244 998 523 333 1302 673 1875 817 610 154 1130 227 1738 242 l57 2 0 -535z
m298 525 c678 -29 1444 -175 2032 -389 846 -307 1616 -755 2228 -1295 696
-615 1289 -1361 1641 -2064 272 -544 443 -983 550 -1412 137 -544 210 -1032
231 -1522 5 -136 10 -252 10 -258 0 -7 -172 -10 -535 -10 -421 0 -535 3 -535
13 -1 145 -27 509 -51 702 -78 632 -284 1317 -569 1885 -264 527 -502 888
-826 1250 -375 418 -647 666 -1039 945 -422 301 -803 504 -1278 683 -513 193
-944 303 -1412 361 -193 24 -557 50 -702 51 -10 0 -13 114 -13 535 0 363 3
535 10 535 6 0 122 -5 258 -10z m-296 -1262 c2 -54 7 -93 13 -93 6 0 11 39 13
93 2 64 6 92 15 92 7 0 111 -5 232 -10 475 -22 963 -105 1410 -240 643 -195
1141 -438 1670 -815 392 -279 664 -527 1039 -945 324 -362 562 -723 826 -1250
340 -678 544 -1479 580 -2275 5 -121 10 -225 10 -232 0 -9 -29 -13 -97 -15
-129 -4 -128 -22 0 -26 l99 -3 -6 -102 c-3 -56 -8 -160 -12 -232 -3 -71 -19
-240 -36 -375 -76 -621 -267 -1258 -538 -1800 -264 -527 -502 -888 -826 -1250
-375 -418 -647 -666 -1039 -945 -529 -377 -1027 -620 -1670 -815 -447 -135
-935 -218 -1410 -240 -121 -5 -225 -10 -232 -10 -9 0 -13 28 -15 93 -2 53 -7
92 -13 92 -6 0 -11 -39 -13 -92 -1 -51 -7 -93 -12 -93 -4 0 -111 5 -237 10
-615 29 -1232 158 -1849 390 -675 253 -1441 755 -1970 1291 -357 362 -625 707
-894 1149 -233 383 -451 880 -565 1285 -138 493 -214 942 -235 1398 -5 126
-10 233 -10 237 0 5 42 11 93 12 121 4 121 22 -2 26 l-93 3 6 107 c3 59 8 168
12 242 22 522 185 1265 383 1755 309 764 723 1394 1305 1984 529 536 1295
1038 1970 1291 678 255 1309 377 2043 399 l52 1 3 -92z m-7797 -5985 c22 -885
245 -1896 600 -2723 231 -538 446 -932 787 -1443 380 -569 952 -1185 1512
-1627 780 -617 1475 -996 2450 -1336 512 -179 1009 -286 1631 -353 211 -23
655 -51 808 -51 4 0 7 -22 7 -50 l0 -50 -202 6 c-891 25 -1746 198 -2643 535
-1128 424 -2359 1296 -3139 2224 -540 643 -866 1155 -1215 1905 -297 640 -531
1446 -616 2120 -40 320 -75 772 -75 971 l0 139 44 0 44 0 7 -267z m319 150 c3
-65 8 -185 12 -268 3 -82 19 -269 35 -415 79 -713 285 -1487 565 -2126 260
-593 442 -919 794 -1419 386 -549 909 -1094 1498 -1559 524 -414 1209 -796
1927 -1075 460 -178 1050 -332 1575 -410 298 -44 720 -81 938 -81 l132 0 0
-110 c0 -60 -3 -110 -7 -110 -153 0 -597 28 -808 51 -622 67 -1119 174 -1631
353 -911 318 -1602 698 -2370 1306 -560 442 -1132 1058 -1512 1627 -340 509
-563 919 -784 1438 -337 792 -552 1781 -573 2648 l-7 267 105 0 105 0 6 -117z
m416 107 c0 -6 5 -122 10 -258 22 -514 111 -1102 235 -1547 247 -892 615
-1653 1147 -2373 306 -414 613 -745 1063 -1148 229 -206 503 -408 855 -633
372 -237 887 -483 1425 -682 593 -219 1370 -369 2057 -399 136 -5 252 -10 258
-10 6 0 10 -53 10 -150 l0 -150 -132 0 c-397 0 -1022 78 -1488 185 -576 132
-991 274 -1486 507 -843 398 -1489 860 -2181 1559 -470 476 -967 1166 -1256
1744 -278 557 -429 952 -573 1490 -128 482 -222 1067 -238 1490 -4 83 -9 203
-12 268 l-6 117 156 0 c101 0 156 -4 156 -10z m1180 1 c0 -5 5 -112 10 -238
30 -637 171 -1302 401 -1878 141 -354 276 -634 429 -885 442 -728 984 -1316
1625 -1765 443 -310 846 -528 1279 -690 659 -248 1259 -376 1889 -405 126 -5
233 -10 238 -10 5 0 9 -217 9 -535 0 -363 -3 -535 -10 -535 -6 0 -122 5 -258
10 -672 29 -1470 182 -2027 388 -506 188 -1013 433 -1375 663 -498 318 -800
560 -1244 998 -714 705 -1316 1657 -1645 2602 -176 507 -273 940 -340 1519
-23 194 -51 615 -51 760 0 7 172 10 535 10 318 0 535 -4 535 -9z m12866 -98
c-3 -60 -8 -175 -12 -258 -22 -568 -189 -1410 -382 -1930 -111 -298 -235 -581
-393 -897 -352 -703 -945 -1449 -1641 -2064 -612 -540 -1382 -988 -2228 -1295
-588 -214 -1354 -360 -2032 -389 -136 -5 -252 -10 -258 -10 -7 0 -10 172 -10
535 0 421 3 535 13 535 145 1 509 27 702 51 777 96 1669 401 2305 788 235 144
541 361 745 531 351 291 785 759 1026 1105 377 542 657 1123 852 1770 122 403
215 925 231 1300 4 72 9 176 12 233 l6 102 535 0 535 0 -6 -107z m410 -10 c-3
-65 -8 -185 -12 -268 -8 -214 -56 -631 -109 -943 -134 -801 -480 -1709 -937
-2464 -361 -597 -896 -1241 -1398 -1683 -726 -639 -1358 -1028 -2269 -1396
-570 -231 -1412 -418 -2109 -469 -151 -11 -332 -20 -403 -20 l-129 0 0 150 c0
97 4 150 10 150 6 0 122 5 258 10 685 29 1438 174 2050 395 891 321 1666 768
2290 1319 699 618 1290 1362 1644 2071 275 551 467 1045 577 1485 126 502 210
1031 225 1415 4 83 9 198 12 258 l6 107 150 0 150 0 -6 -117z m330 -5 c-3 -68
-8 -190 -12 -273 -9 -242 -60 -665 -115 -970 -135 -749 -342 -1371 -679 -2045
-332 -663 -719 -1223 -1261 -1821 -446 -492 -1056 -985 -1694 -1369 -264 -159
-735 -397 -1010 -510 -511 -210 -1068 -372 -1565 -455 -319 -53 -737 -101
-965 -109 -88 -4 -213 -9 -277 -12 l-118 -6 0 111 0 111 129 0 c398 0 1015 76
1476 181 453 104 752 193 1075 323 946 379 1570 761 2310 1411 502 442 1037
1086 1398 1683 462 763 831 1733 967 2544 53 312 101 729 109 943 4 83 9 203
12 268 l6 117 110 0 110 0 -6 -122z m210 0 c-3 -68 -8 -190 -11 -273 -10 -247
-61 -691 -115 -983 -199 -1093 -620 -2122 -1248 -3052 -504 -745 -1252 -1508
-1963 -2002 -508 -353 -900 -573 -1477 -830 -600 -266 -1398 -481 -2122 -573
-252 -32 -713 -65 -900 -65 l-70 0 0 49 0 49 118 6 c64 3 189 8 277 12 228 8
646 56 965 109 689 115 1454 372 2160 725 819 410 1617 1007 2189 1639 793
875 1313 1754 1693 2856 206 601 368 1449 392 2060 4 83 9 205 12 273 l6 122
50 0 50 0 -6 -122z"/>
<path d="M14435 20900 c-132 -21 -334 -61 -450 -89 -288 -70 -313 -78 -325
-102 -9 -15 -1 -89 31 -310 26 -178 39 -293 33 -298 -5 -5 -101 -43 -214 -84
-113 -40 -275 -108 -361 -149 l-156 -76 -174 231 c-96 126 -184 236 -196 244
-15 10 -30 12 -46 6 -73 -26 -455 -265 -625 -390 -106 -78 -206 -150 -222
-160 -35 -20 -45 -55 -27 -91 7 -15 76 -132 152 -261 l139 -233 -75 -71 c-201
-192 -251 -242 -369 -367 l-127 -134 -239 141 c-132 77 -249 146 -261 152 -37
19 -66 3 -107 -57 -22 -31 -94 -131 -160 -222 -164 -224 -379 -574 -379 -618
-1 -20 5 -37 14 -42 7 -5 118 -87 245 -182 l231 -173 -81 -175 c-45 -96 -113
-262 -151 -367 -61 -167 -73 -193 -91 -193 -12 0 -146 18 -299 40 -154 22
-287 38 -297 34 -10 -3 -22 -13 -27 -22 -5 -9 -36 -134 -69 -277 -70 -304
-140 -742 -122 -774 12 -23 14 -24 348 -112 l243 -64 -6 -90 c-2 -49 -8 -138
-11 -197 l-6 -107 -121 -3 c-73 -2 -122 -7 -122 -13 0 -6 49 -11 122 -13 l121
-3 6 -107 c3 -59 8 -145 11 -192 l5 -85 -242 -64 c-334 -88 -336 -89 -348
-112 -18 -33 52 -483 122 -779 33 -140 64 -263 69 -272 5 -9 17 -19 27 -22 10
-4 143 12 297 34 153 22 287 40 299 40 18 0 30 -26 91 -193 38 -105 106 -271
151 -367 l81 -175 -231 -173 c-127 -95 -238 -177 -245 -182 -9 -5 -15 -22 -14
-42 0 -44 215 -394 379 -618 66 -91 138 -191 160 -222 41 -60 70 -76 107 -57
12 6 129 75 261 152 l239 141 127 -134 c118 -125 168 -175 369 -367 l75 -71
-139 -233 c-76 -129 -145 -246 -152 -261 -18 -36 -8 -71 27 -91 16 -10 116
-82 222 -160 170 -125 552 -364 625 -390 16 -6 31 -4 46 6 12 8 100 118 196
244 l174 231 156 -76 c86 -41 248 -109 361 -149 113 -41 209 -79 214 -84 6 -5
-7 -120 -33 -298 -31 -216 -39 -295 -32 -310 14 -25 26 -29 321 -100 287 -69
716 -139 749 -121 23 12 25 18 112 353 l64 247 85 -5 c47 -3 133 -8 192 -11
l107 -6 3 -124 c4 -165 22 -165 26 0 l3 124 102 6 c56 3 144 7 196 8 l94 3 67
-265 c37 -146 70 -277 73 -292 13 -52 28 -52 290 -13 220 34 630 122 750 161
26 9 52 24 57 35 8 14 1 94 -25 292 -19 150 -35 284 -35 298 0 22 15 29 213
100 116 42 282 110 368 151 l156 75 174 -230 c96 -126 176 -233 179 -237 3 -5
17 -11 30 -15 35 -8 394 207 652 391 221 158 263 195 255 225 -3 11 -70 133
-148 270 l-142 250 200 197 c110 108 237 237 280 286 l80 90 243 -145 c134
-79 254 -148 267 -152 17 -6 31 -4 49 8 44 29 314 403 430 596 151 250 169
286 156 315 -6 12 -116 102 -244 199 -128 98 -232 181 -231 185 1 4 40 90 86
191 46 101 113 264 148 361 56 155 67 178 85 178 12 0 144 -18 294 -40 150
-22 281 -38 291 -35 11 4 23 14 28 23 5 9 36 123 69 252 71 276 152 763 132
799 -12 23 -18 25 -353 112 l-248 64 6 100 c3 55 8 141 11 192 l6 92 126 3
c168 4 169 22 0 26 l-126 3 -6 107 c-3 59 -9 148 -11 197 l-6 90 268 69 c304
78 329 87 337 114 13 40 -71 531 -134 781 -33 134 -65 252 -70 262 -6 10 -18
20 -29 24 -10 3 -141 -13 -291 -35 -150 -22 -282 -40 -294 -40 -18 0 -29 23
-85 178 -35 97 -102 260 -148 361 -46 101 -85 187 -86 191 -1 4 103 87 231
185 128 97 238 187 244 199 13 29 -5 65 -156 315 -116 193 -386 567 -430 596
-18 12 -32 14 -49 8 -13 -4 -133 -73 -267 -152 l-243 -145 -80 90 c-43 49
-170 178 -280 286 l-200 197 142 250 c78 137 145 259 148 270 8 30 -34 67
-255 225 -258 184 -617 399 -652 391 -13 -4 -27 -10 -30 -15 -3 -4 -83 -111
-179 -237 l-174 -230 -156 75 c-86 41 -252 109 -368 151 -198 71 -213 78 -213
100 0 14 16 148 35 298 26 198 33 278 25 292 -5 11 -31 26 -57 35 -120 39
-530 127 -750 161 -262 39 -277 39 -290 -13 -3 -15 -36 -146 -73 -292 l-67
-265 -94 3 c-52 1 -140 5 -196 8 l-102 6 -3 126 c-2 76 -7 127 -13 127 -6 0
-11 -51 -13 -127 l-3 -126 -107 -6 c-59 -3 -145 -8 -192 -11 l-85 -5 -75 287
c-47 182 -81 294 -92 305 -23 23 -18 23 -303 -22z m275 -242 c98 -379 108
-412 126 -425 14 -11 52 -12 184 -6 210 10 361 10 577 0 159 -7 174 -6 190 10
12 12 42 117 88 301 56 228 73 282 86 282 100 0 851 -149 876 -174 5 -5 -34
-353 -63 -556 -3 -21 0 -42 8 -52 7 -10 103 -50 213 -89 116 -41 294 -115 423
-176 192 -91 226 -104 247 -95 12 6 101 113 196 239 95 125 173 230 175 232 1
1 76 -41 166 -94 144 -87 588 -392 588 -405 0 -3 -64 -115 -141 -250 -93 -161
-142 -255 -142 -275 -1 -25 14 -43 84 -110 198 -188 321 -313 429 -434 63 -71
125 -132 138 -135 27 -8 34 -5 307 157 121 71 223 132 227 134 12 6 248 -315
353 -482 138 -218 170 -276 158 -284 -6 -3 -112 -82 -236 -176 -147 -111 -227
-178 -231 -193 -5 -17 23 -88 102 -260 60 -130 140 -322 177 -425 45 -124 75
-191 87 -198 13 -7 101 2 308 32 159 24 292 40 295 38 3 -3 29 -108 60 -233
48 -203 126 -649 114 -660 -2 -3 -130 -37 -284 -78 -179 -46 -286 -79 -298
-91 -16 -16 -17 -31 -10 -190 4 -95 8 -224 8 -287 0 -63 -4 -192 -8 -287 -7
-159 -6 -174 10 -190 12 -12 119 -45 298 -91 154 -41 282 -75 284 -78 12 -11
-66 -457 -114 -660 -31 -125 -57 -230 -60 -233 -3 -2 -136 14 -295 38 -207 30
-295 39 -308 32 -12 -7 -42 -74 -87 -198 -37 -103 -117 -295 -177 -425 -79
-172 -107 -243 -102 -260 4 -15 84 -82 231 -193 124 -93 230 -173 236 -176 12
-8 -20 -66 -158 -284 -105 -167 -341 -488 -353 -482 -4 2 -106 63 -227 134
-273 162 -280 165 -307 157 -13 -3 -75 -64 -138 -135 -108 -121 -231 -246
-429 -434 -70 -67 -85 -85 -84 -110 0 -20 49 -114 142 -275 77 -135 141 -247
141 -250 0 -13 -444 -318 -588 -405 -90 -53 -165 -95 -166 -94 -2 2 -80 107
-175 232 -95 126 -184 233 -196 239 -21 9 -55 -4 -247 -95 -129 -61 -307 -135
-423 -176 -110 -39 -206 -79 -213 -89 -8 -10 -11 -31 -8 -52 29 -203 68 -551
63 -556 -25 -25 -776 -174 -876 -174 -13 0 -30 54 -86 282 -46 184 -76 289
-88 301 -16 16 -31 17 -190 10 -217 -10 -367 -10 -579 0 -154 7 -169 6 -186
-11 -11 -11 -44 -120 -90 -297 -41 -154 -75 -282 -78 -284 -11 -12 -465 67
-666 116 -197 47 -228 57 -228 74 0 10 18 141 40 291 29 191 38 279 31 294 -7
16 -56 37 -203 89 -110 39 -292 114 -425 177 -169 79 -238 107 -255 102 -15
-4 -83 -85 -193 -231 -93 -124 -173 -230 -177 -236 -12 -19 -354 191 -565 347
-111 82 -201 152 -199 155 2 3 62 105 133 226 159 269 166 281 158 305 -3 10
-81 90 -172 177 -91 87 -200 194 -242 238 -220 231 -249 258 -274 251 -13 -3
-127 -67 -253 -142 -126 -75 -236 -140 -246 -145 -13 -7 -39 23 -145 168 -70
98 -185 269 -255 380 l-127 203 239 180 c131 98 241 188 245 199 4 14 -29 96
-103 258 -60 131 -140 323 -177 426 -45 123 -75 191 -87 198 -13 7 -100 -2
-300 -31 -155 -22 -287 -40 -294 -40 -20 0 -118 427 -155 672 -18 120 -31 220
-28 222 2 3 130 38 283 79 197 53 284 80 293 93 11 14 12 52 6 184 -10 210
-10 361 0 575 6 136 5 174 -6 189 -9 13 -94 40 -293 93 -153 41 -281 76 -283
79 -3 2 10 102 28 222 37 245 135 672 155 672 7 0 139 -18 294 -40 200 -29
287 -38 300 -31 12 7 42 75 87 198 37 103 117 295 177 426 74 162 107 244 103
258 -4 11 -114 101 -245 199 l-239 180 127 203 c70 111 185 282 255 380 106
145 132 175 145 168 10 -5 120 -70 246 -145 126 -75 240 -139 253 -142 25 -7
54 20 274 251 42 44 151 151 242 238 91 87 169 167 172 177 8 24 1 36 -158
305 -71 121 -131 223 -133 226 -2 3 88 73 199 155 211 156 553 366 565 347 4
-6 84 -112 177 -236 110 -146 178 -227 193 -231 17 -5 86 23 255 102 133 63
315 138 425 177 147 52 196 73 203 89 7 15 -2 103 -31 294 -22 150 -40 281
-40 291 0 17 29 26 213 71 189 47 571 116 653 119 l31 1 43 -162z"/>
<path d="M15295 20069 c-10 -27 0 -2689 10 -2692 14 -3 19 2683 5 2697 -6 6
-11 4 -15 -5z"/>
<path d="M15295 17119 c-10 -26 -1 -269 10 -272 14 -3 19 263 6 276 -7 7 -12
5 -16 -4z"/>
<path d="M15296 16593 c-3 -3 -6 -305 -6 -670 l0 -663 -667 -2 c-437 -2 -668
-6 -668 -13 0 -7 231 -11 667 -13 l668 -2 2 -663 c2 -433 6 -662 13 -662 7 0
11 229 13 662 l2 663 668 2 c436 2 667 6 667 13 0 7 -231 11 -667 13 l-668 2
0 664 c0 366 -4 667 -9 670 -4 3 -11 3 -15 -1z"/>
<path d="M10485 15250 c-3 -6 0 -12 7 -15 26 -10 2688 0 2691 10 3 14 -2689
19 -2698 5z"/>
<path d="M13425 15250 c-3 -5 0 -12 7 -15 25 -10 283 0 283 10 0 14 -281 19
-290 5z"/>
<path d="M16905 15250 c-3 -5 0 -13 7 -15 26 -10 273 -1 271 10 -4 14 -269 19
-278 5z"/>
<path d="M17435 15250 c-3 -6 0 -12 7 -15 26 -10 2688 0 2691 10 3 14 -2689
19 -2698 5z"/>
<path d="M15295 13649 c-10 -26 -1 -279 10 -279 14 0 19 270 6 283 -7 7 -12 5
-16 -4z"/>
<path d="M15295 13119 c-10 -27 0 -2689 10 -2692 14 -3 19 2683 5 2697 -6 6
-11 4 -15 -5z"/>
<path d="M4357 21093 c-74 -117 -132 -260 -97 -238 19 12 140 259 131 268 -6
6 -19 -5 -34 -30z"/>
<path d="M26576 20391 c-7 -10 106 -255 122 -265 28 -17 17 22 -37 137 -58
122 -74 147 -85 128z"/>
<path d="M6475 15250 c-3 -5 0 -12 7 -15 25 -10 283 0 283 10 0 14 -281 19
-290 5z"/>
<path d="M23855 15250 c-3 -5 0 -13 7 -15 26 -10 273 -1 271 10 -4 14 -269 19
-278 5z"/>
<path d="M3906 10371 c-7 -10 73 -217 101 -260 9 -13 19 -19 24 -14 5 5 -14
62 -45 136 -55 133 -69 157 -80 138z"/>
<path d="M4136 9871 c-10 -15 151 -339 333 -670 290 -526 735 -1190 1124
-1674 l160 -200 -34 -32 c-71 -65 -169 -196 -214 -285 -55 -110 -100 -272
-115 -421 -29 -273 67 -614 228 -812 153 -187 311 -305 502 -375 302 -110 550
-110 848 3 188 72 343 188 494 372 160 195 257 539 228 806 -34 314 -141 531
-366 747 -106 101 -218 172 -356 225 -298 113 -546 113 -848 3 -112 -41 -260
-126 -321 -184 l-26 -25 -156 195 c-218 272 -532 711 -755 1058 -201 312 -475
798 -618 1094 -80 167 -97 194 -108 175z m2626 -2365 c62 -13 145 -37 183 -53
142 -59 316 -200 452 -368 133 -164 210 -461 183 -707 -16 -147 -46 -260 -98
-362 -40 -82 -144 -226 -162 -226 -4 0 -40 30 -79 66 -48 45 -75 64 -82 57 -7
-7 15 -33 65 -80 l75 -70 -62 -60 c-78 -76 -201 -158 -292 -196 -187 -77 -422
-97 -627 -53 -197 42 -343 120 -486 259 -216 209 -301 380 -332 668 -20 185
17 413 92 563 38 75 141 212 202 267 l30 26 25 -31 c108 -132 535 -587 747
-797 286 -283 360 -347 375 -332 7 7 -18 35 -78 86 -188 161 -958 963 -1030
1074 -15 22 -14 25 8 49 38 40 187 135 264 167 185 77 422 97 627 53z"/>
<path d="M26353 9648 c-6 -7 -38 -68 -72 -136 -55 -110 -68 -154 -40 -136 19
11 140 267 131 276 -5 5 -13 4 -19 -4z"/>
<path d="M26083 9143 c-11 -15 -89 -145 -173 -288 -203 -346 -495 -777 -759
-1120 -118 -154 -235 -303 -259 -332 l-45 -52 -31 27 c-231 201 -635 305 -942
242 -458 -93 -776 -378 -908 -813 -69 -227 -69 -423 0 -645 36 -116 115 -290
159 -348 14 -19 36 -49 50 -67 l25 -34 -86 -72 c-58 -50 -83 -76 -76 -83 7 -7
38 13 97 62 l86 73 67 -66 c176 -174 515 -307 786 -307 134 0 288 30 432 85
328 124 564 389 679 760 45 146 60 282 45 418 -27 252 -152 526 -318 699 l-46
47 50 58 c130 150 499 647 676 908 222 330 535 852 520 867 -6 6 -17 0 -29
-19z m-1803 -1633 c148 -28 240 -64 355 -141 160 -106 161 -79 -6 -276 -202
-238 -580 -626 -885 -907 -230 -212 -441 -396 -457 -396 -14 0 -113 150 -152
228 -176 362 -139 774 95 1082 256 337 642 488 1050 410z m630 -400 c115 -150
190 -339 210 -527 41 -381 -149 -768 -485 -992 -115 -77 -206 -113 -355 -141
-190 -36 -403 -19 -579 47 -106 39 -259 135 -329 206 l-62 63 97 79 c308 251
978 913 1252 1238 l133 158 30 -28 c17 -15 56 -62 88 -103z"/>
<path d="M15295 6699 c-10 -26 -1 -269 10 -272 14 -3 19 263 6 276 -7 7 -12 5
-16 -4z"/>
<path d="M7576 5562 c-12 -20 278 -248 634 -499 942 -662 2054 -1217 3197
-1597 317 -106 385 -123 368 -96 -3 5 -164 61 -358 126 -902 300 -1834 732
-2612 1212 -345 213 -793 524 -1042 724 -95 76 -174 138 -177 138 -3 0 -7 -4
-10 -8z"/>
<path d="M22765 5364 c-154 -116 -177 -136 -167 -146 11 -11 248 160 245 177
-3 19 -19 13 -78 -31z"/>
<path d="M22105 4899 c-675 -458 -1570 -909 -2505 -1264 -373 -141 -858 -291
-1250 -386 -265 -64 -299 -74 -283 -90 14 -14 487 104 876 221 797 237 1814
679 2577 1118 306 176 886 555 883 577 -1 5 -5 11 -10 12 -4 1 -134 -83 -288
-188z"/>
<path d="M12015 3300 c-8 -14 20 -24 159 -61 77 -20 122 -27 128 -21 14 14 1
20 -140 58 -144 38 -139 37 -147 24z"/>
<path d="M17661 3094 c-120 -22 -154 -35 -132 -48 10 -7 272 37 291 49 15 9 2
25 -18 24 -9 -1 -73 -12 -141 -25z"/>
<path d="M15295 27549 c-10 -26 -1 -279 10 -279 14 0 19 270 6 283 -7 7 -12 5
-16 -4z"/>
<path d="M2914 15796 c-11 -28 -10 -280 1 -286 14 -7 29 280 15 294 -6 6 -12
3 -16 -8z"/>
<path d="M3005 15250 c-3 -5 0 -12 7 -15 25 -10 283 0 283 10 0 14 -281 19
-290 5z"/>
<path d="M27325 15250 c-3 -5 0 -12 7 -15 25 -10 283 0 283 10 0 14 -281 19
-290 5z"/>
<path d="M27696 14999 c-11 -28 -11 -288 -1 -291 15 -4 31 280 17 294 -8 8
-13 8 -16 -3z"/>
<path d="M15295 3229 c-10 -26 -1 -279 10 -279 14 0 19 270 6 283 -7 7 -12 5
-16 -4z"/>
</g>
</svg>
