<?xml version="1.0" standalone="no"?>
<!DOCTYPE svg PUBLIC "-//W3C//DTD SVG 20010904//EN"
  "http://www.w3.org/TR/2001/REC-SVG-20010904/DTD/svg10.dtd">
<svg version="1.0" xmlns="http://www.w3.org/2000/svg"
  width="518.000000pt" height="518.000000pt" viewBox="0 0 518.000000 518.000000"
  preserveAspectRatio="xMidYMid meet">

<g transform="translate(0.000000,518.000000) scale(0.100000,-0.100000)"
fill="#ffffff" stroke="none">
<path d="M2345 5159 c-99 -10 -195 -26 -203 -34 -3 -2 -40 -134 -83 -292 -43
-157 -82 -290 -86 -293 -5 -4 -37 -17 -73 -30 -36 -13 -107 -43 -159 -67 l-94
-43 -264 151 c-145 83 -269 149 -276 146 -75 -29 -415 -347 -539 -505 -106
-135 -113 -92 61 -394 l151 -264 -43 -95 c-24 -52 -54 -123 -67 -159 -13 -36
-26 -68 -30 -73 -3 -4 -136 -43 -293 -86 -158 -43 -290 -81 -293 -84 -3 -3
-13 -50 -22 -104 -22 -137 -22 -549 0 -686 9 -54 19 -101 22 -104 3 -3 135
-41 292 -84 158 -43 290 -82 294 -86 4 -4 17 -37 30 -73 13 -36 43 -107 67
-159 l43 -95 -151 -263 c-83 -145 -149 -269 -146 -276 29 -75 347 -415 505
-539 135 -106 91 -113 395 61 l265 152 58 -29 c33 -16 104 -46 159 -67 55 -21
103 -42 108 -45 4 -4 43 -136 86 -293 43 -158 81 -290 84 -293 3 -3 50 -13
104 -22 137 -22 549 -22 686 0 54 9 101 19 104 22 3 3 41 135 84 293 43 157
82 290 86 293 5 4 37 17 73 30 36 13 108 43 160 67 l94 44 263 -152 c145 -83
269 -149 276 -146 75 29 415 347 539 505 106 135 113 92 -61 394 l-151 264 43
95 c24 52 54 123 67 159 13 36 26 69 30 73 4 4 137 43 295 86 252 68 289 80
297 100 22 60 40 330 34 511 -6 172 -26 353 -40 368 -4 3 -135 41 -293 84
-157 42 -289 81 -293 85 -4 4 -17 37 -30 73 -13 36 -43 107 -67 159 l-43 95
151 263 c83 145 149 269 146 276 -16 43 -153 204 -287 337 -133 134 -294 271
-337 287 -7 3 -131 -63 -276 -146 l-263 -152 -94 44 c-52 24 -124 54 -160 67
-36 13 -68 26 -73 30 -4 3 -43 136 -86 293 -43 158 -81 290 -84 293 -28 28
-516 52 -692 33z m355 -1509 c121 -14 231 -45 336 -94 123 -59 203 -115 300
-211 278 -274 383 -690 267 -1060 -239 -764 -1199 -1001 -1764 -436 -412 414
-410 1086 5 1496 97 96 177 152 300 211 178 84 367 116 556 94z"/>
</g>
</svg>
