<?xml version="1.0" standalone="no"?>
<!DOCTYPE svg PUBLIC "-//W3C//DTD SVG 20010904//EN"
  "http://www.w3.org/TR/2001/REC-SVG-20010904/DTD/svg10.dtd">
<svg version="1.0" xmlns="http://www.w3.org/2000/svg"
  width="596.000000pt" height="461.000000pt" viewBox="0 0 596.000000 461.000000"
  preserveAspectRatio="xMidYMid meet">

<g transform="translate(0.000000,461.000000) scale(0.100000,-0.100000)"
fill="#000000" stroke="none">
<path d="M3385 4594 c-66 -8 -123 -18 -128 -23 -4 -4 -34 -104 -66 -222 l-59
-214 -1566 -3 -1566 -2 0 -73 c0 -100 32 -223 90 -342 128 -264 341 -439 637
-522 l98 -28 1495 -5 c1680 -7 1525 1 1705 -84 176 -84 318 -226 401 -401 66
-141 78 -196 78 -370 0 -174 -12 -230 -78 -370 -84 -176 -226 -318 -401 -401
-176 -83 -101 -78 -1104 -84 l-893 -5 -129 -225 c-71 -124 -129 -230 -129
-236 0 -6 38 -57 84 -115 96 -120 286 -307 399 -393 67 -51 80 -58 100 -49 12
6 120 67 240 136 l219 125 81 -38 c45 -21 112 -49 149 -61 l67 -24 21 -80 c57
-213 112 -412 120 -431 7 -19 23 -23 112 -35 194 -26 673 -11 694 22 3 5 37
125 75 266 39 142 71 258 72 258 1 1 43 16 92 34 50 19 115 46 146 62 l56 28
234 -134 c129 -74 239 -135 245 -135 6 0 57 38 115 84 120 96 307 286 393 399
51 67 58 80 49 100 -6 12 -67 121 -136 241 l-126 219 28 56 c16 31 43 97 61
146 19 50 34 91 34 92 1 1 117 33 259 72 141 38 261 72 266 75 33 21 48 500
22 694 -12 89 -16 105 -35 112 -19 8 -237 69 -431 120 l-80 21 -24 67 c-12 37
-40 104 -61 149 l-38 81 134 234 c73 128 134 238 134 244 0 6 -38 57 -84 115
-98 122 -289 310 -399 393 -67 50 -82 57 -100 48 -12 -5 -121 -66 -241 -135
l-219 -126 -56 28 c-31 16 -96 43 -145 62 -58 22 -91 40 -97 54 -5 11 -38 128
-74 259 -36 132 -68 243 -72 247 -34 31 -483 46 -668 23z"/>
<path d="M806 2782 c-10 -17 18 -194 45 -282 114 -360 433 -622 814 -669 118
-14 1999 -15 2076 -1 82 15 193 74 254 135 66 67 120 174 137 271 41 244 -141
497 -391 544 -63 12 -2927 14 -2935 2z"/>
</g>
</svg>
