<?xml version="1.0" standalone="no"?>
<!DOCTYPE svg PUBLIC "-//W3C//DTD SVG 20010904//EN"
  "http://www.w3.org/TR/2001/REC-SVG-20010904/DTD/svg10.dtd">
<svg version="1.0" xmlns="http://www.w3.org/2000/svg"
  width="342.000000pt" height="79.000000pt" viewBox="0 0 342.000000 79.000000"
  preserveAspectRatio="xMidYMid meet">

<g transform="translate(0.000000,79.000000) scale(0.100000,-0.100000)"
fill="#000000" stroke="none">
<path d="M342 704 c-91 -24 -145 -62 -192 -132 -85 -128 -92 -303 -19 -473 36
-82 35 -82 160 1 5 3 -2 33 -16 65 -13 33 -27 77 -30 98 l-7 37 91 0 91 0 0
-95 0 -95 80 0 80 0 0 225 0 225 -80 0 -80 0 0 -60 0 -60 -80 0 c-44 0 -80 2
-80 5 0 17 33 66 60 88 42 35 89 47 193 47 48 0 87 2 87 5 0 3 -7 35 -16 70
l-16 65 -87 -1 c-47 0 -110 -7 -139 -15z"/>
<path d="M934 710 c-103 -21 -195 -95 -240 -194 -28 -62 -47 -176 -39 -228 6
-36 5 -38 -19 -38 -31 0 -30 4 -9 -76 l17 -64 266 0 267 0 13 58 13 57 18 -55
17 -55 61 2 c47 1 74 9 121 34 118 63 181 165 188 307 6 103 -13 157 -69 206
-49 42 -103 56 -212 56 l-84 0 -13 -57 c-7 -32 -15 -64 -17 -70 -4 -10 15 -13
76 -13 92 0 131 -14 149 -55 7 -14 12 -28 12 -30 0 -2 -46 -6 -102 -7 l-102
-3 -12 -40 c-6 -22 -14 -52 -18 -67 l-6 -28 107 0 107 0 -34 -35 c-41 -42
-105 -65 -182 -65 l-58 0 0 155 0 155 -80 0 -80 0 0 -155 0 -155 -84 0 -84 0
-7 49 c-8 62 9 149 38 193 40 59 96 81 218 86 l106 4 -17 67 -16 66 -85 2
c-46 0 -103 -3 -125 -7z"/>
<path d="M1690 415 l0 -305 80 0 80 0 2 183 3 182 59 -77 c32 -43 60 -78 61
-78 1 0 29 35 61 78 l59 77 3 -183 2 -182 80 0 80 0 0 305 0 305 -77 0 -78 0
-65 -90 c-36 -50 -65 -90 -65 -90 -1 0 -30 41 -65 90 l-64 90 -78 0 -78 0 0
-305z"/>
<path d="M2592 704 c-91 -24 -145 -62 -192 -132 -85 -128 -92 -303 -19 -473
36 -82 35 -82 160 1 5 3 -2 33 -16 65 -13 33 -27 77 -30 98 l-7 37 91 0 91 0
0 -95 0 -95 80 0 80 0 0 225 0 225 -80 0 -80 0 0 -60 0 -60 -80 0 c-44 0 -80
2 -80 5 0 17 33 66 60 88 42 35 89 47 193 47 48 0 87 2 87 5 0 3 -7 35 -16 70
l-16 65 -87 -1 c-47 0 -110 -7 -139 -15z"/>
<path d="M2917 663 c-10 -33 -17 -65 -17 -71 0 -9 37 -12 133 -12 72 0 142 -3
154 -6 53 -14 33 -79 -40 -132 -25 -17 -50 -32 -56 -32 -7 0 -11 28 -11 75 l0
75 -80 0 -80 0 0 -225 0 -225 80 0 80 0 0 64 0 65 73 38 c92 48 198 151 215
209 17 60 15 94 -10 144 -39 75 -66 84 -259 88 l-166 4 -16 -59z"/>
</g>
</svg>
