<?xml version="1.0" standalone="no"?>
<!DOCTYPE svg PUBLIC "-//W3C//DTD SVG 20010904//EN"
  "http://www.w3.org/TR/2001/REC-SVG-20010904/DTD/svg10.dtd">
<svg version="1.0" xmlns="http://www.w3.org/2000/svg"
  width="678.000000pt" height="518.000000pt" viewBox="0 0 678.000000 518.000000"
  preserveAspectRatio="xMidYMid meet">

<g transform="translate(0.000000,518.000000) scale(0.100000,-0.100000)"
fill="#ffffff" stroke="none">
<path d="M0 4556 c0 -196 93 -431 244 -614 168 -205 430 -348 701 -381 62 -8
589 -11 1706 -11 1775 0 1698 2 1872 -60 251 -91 476 -316 567 -567 84 -234
77 -486 -20 -714 -98 -230 -313 -434 -547 -519 -167 -60 -164 -60 -1195 -60
l-940 0 28 -47 c198 -342 503 -628 851 -802 202 -100 371 -155 608 -197 140
-25 469 -25 615 -1 599 101 1088 418 1414 920 117 179 227 444 275 664 47 216
58 499 26 713 -135 915 -842 1610 -1765 1736 -75 10 -550 13 -2267 13 l-2173
1 0 -74z"/>
<path d="M904 3053 c48 -526 443 -934 962 -993 69 -8 450 -10 1269 -8 l1170 3
65 25 c166 65 280 184 336 350 26 76 26 244 0 320 -56 166 -170 285 -336 350
l-65 25 -1704 3 -1704 2 7 -77z"/>
</g>
</svg>
