<svg xmlns="http://www.w3.org/2000/svg"><style>:root svg:not(:target){display:none}</style><svg viewBox="0 0 512.000000 512.000000" preserveAspectRatio="xMidYMid meet" id="arrow"><g transform="translate(0.000000,512.000000) scale(0.100000,-0.100000)"
fill="#000000" stroke="none"><path d="M2440 4034 c-48 -22 -209 -179 -1226 -1197 -1123 -1123 -1173 -1174
-1193 -1230 -27 -73 -27 -131 1 -204 17 -48 40 -77 137 -174 143 -144 177
-163 286 -164 58 0 91 5 120 19 27 13 355 333 1018 995 l977 976 978 -977
c537 -537 993 -984 1012 -994 19 -9 67 -19 106 -22 110 -7 160 20 305 166 97
98 119 127 137 175 27 72 28 131 2 199 -18 49 -117 151 -1202 1235 -924 923
-1193 1187 -1228 1202 -66 30 -159 28 -230 -5z"></path></g></svg><svg viewBox="0 0 168.000000 168.000000" preserveAspectRatio="xMidYMid meet" id="call"><g transform="translate(0.000000,168.000000) scale(0.100000,-0.100000)"
fill="#000000" stroke="none"><path d="M702 1669 c-84 -14 -200 -56 -282 -102 -102 -57 -250 -205 -307 -307
-149 -267 -149 -573 0 -840 57 -102 205 -250 307 -307 269 -151 589 -149 849
6 74 44 181 135 181 155 0 6 -25 36 -55 66 -52 52 -54 55 -37 73 12 13 16 34
15 65 -2 45 -5 50 -116 159 -104 103 -117 113 -151 113 -30 0 -46 -8 -85 -45
-76 -71 -83 -68 -234 83 -150 150 -152 158 -82 233 37 39 45 55 45 85 0 34
-10 47 -114 152 -112 113 -114 115 -161 116 -45 1 -49 -1 -104 -60 -67 -71
-76 -102 -56 -196 45 -214 265 -506 495 -658 157 -104 275 -151 377 -152 43
-1 60 5 89 27 l36 28 45 -46 46 -45 -34 -31 c-56 -52 -172 -120 -255 -150
-353 -129 -738 0 -945 317 -88 134 -124 258 -124 432 0 225 76 411 230 565
154 154 340 230 565 230 174 0 298 -36 432 -124 272 -178 415 -506 353 -811
-30 -150 -30 -142 -9 -138 43 8 77 254 55 397 -16 102 -54 211 -104 301 -57
102 -205 250 -307 307 -171 96 -373 133 -558 102z m-94 -432 c51 -51 95 -102
98 -114 7 -27 -4 -63 -19 -63 -7 0 -68 56 -136 124 -109 109 -123 127 -111
141 26 31 69 9 168 -88z m29 -235 c-10 -11 -17 -35 -17 -58 0 -38 7 -47 143
-182 135 -133 146 -142 182 -142 22 0 46 7 57 17 18 16 24 11 148 -112 l130
-130 -25 -24 c-71 -71 -321 27 -543 213 -185 154 -361 441 -365 592 -1 44 3
58 23 79 l24 26 130 -130 c124 -125 129 -131 113 -149z m593 -388 c104 -101
126 -142 95 -173 -14 -14 -29 -2 -145 114 -116 116 -128 131 -113 143 38 27
63 15 163 -84z"></path></g></svg><svg viewBox="0 0 512.000000 512.000000" preserveAspectRatio="xMidYMid meet" id="docs"><g transform="translate(0.000000,512.000000) scale(0.100000,-0.100000)"
fill="#000000" stroke="none"><path d="M625 5108 c-41 -22 -45 -37 -45 -180 l0 -138 -130 0 c-136 0 -180
-10 -194 -45 -8 -22 -8 -4678 0 -4700 18 -46 -30 -45 1474 -45 l1411 0 -3 82
-3 83 -1362 3 -1363 2 0 2225 0 2225 1240 0 1240 0 0 -299 0 -300 24 -28 24
-28 306 -3 306 -3 0 -330 0 -330 83 3 82 3 0 388 0 387 -355 355 -356 355
-1132 0 -1132 0 0 80 0 80 1570 0 1570 0 0 -905 0 -905 85 0 85 0 -2 966 -3
966 -28 24 -28 24 -1672 0 c-1191 -1 -1678 -4 -1692 -12z m2625 -793 l185
-185 -188 0 -187 0 0 185 c0 102 1 185 3 185 1 0 85 -83 187 -185z"></path><path d="M660 4375 l0 -86 83 3 82 3 3 83 3 82 -86 0 -85 0 0 -85z"></path><path d="M990 4375 l0 -86 83 3 82 3 3 83 3 82 -86 0 -85 0 0 -85z"></path><path d="M1320 4375 l0 -86 83 3 82 3 3 83 3 82 -86 0 -85 0 0 -85z"></path><path d="M1650 4375 l0 -85 538 2 537 3 0 80 0 80 -537 3 -538 2 0 -85z"></path><path d="M580 3715 l0 -85 1073 2 1072 3 0 80 0 80 -1072 3 -1073 2 0 -85z"></path><path d="M580 3385 l0 -85 1073 2 1072 3 0 80 0 80 -1072 3 -1073 2 0 -85z"></path><path d="M580 3055 l0 -85 1073 2 1072 3 0 80 0 80 -1072 3 -1073 2 0 -85z"></path><path d="M3615 3132 c-11 -2 -66 -50 -122 -107 -191 -193 -409 -311 -666 -360
-45 -9 -150 -18 -234 -22 -144 -6 -154 -7 -175 -30 l-23 -25 0 -731 c0 -772 0
-769 47 -917 58 -182 191 -357 353 -467 108 -73 818 -473 839 -473 21 0 731
400 840 473 171 115 309 310 368 522 22 79 23 87 26 838 l3 757 -24 23 c-21
22 -34 24 -176 30 -380 17 -641 127 -888 375 -103 103 -131 122 -168 114z
m190 -358 c228 -180 544 -293 823 -294 l83 0 -3 -682 c-4 -662 -5 -685 -25
-759 -50 -179 -157 -330 -301 -428 -52 -35 -739 -431 -748 -431 -15 0 -736
420 -785 458 -82 61 -161 159 -210 257 -76 156 -73 119 -77 893 l-3 692 81 0
c223 0 503 84 702 210 89 57 202 146 258 204 l34 36 61 -58 c33 -32 83 -76
110 -98z"></path><path d="M3451 2375 c-135 -30 -219 -66 -326 -138 -171 -116 -299 -291 -362
-494 -24 -80 -27 -103 -27 -253 -1 -143 2 -175 22 -243 88 -306 319 -539 627
-633 81 -25 106 -27 245 -28 132 -1 166 3 233 22 324 93 556 325 649 649 19
67 23 101 22 233 -1 139 -3 164 -28 245 -93 305 -326 538 -628 626 -96 28
-331 36 -427 14z m327 -161 c178 -37 320 -124 435 -267 105 -131 158 -283 159
-457 1 -133 -19 -217 -79 -340 -40 -80 -61 -109 -137 -186 -77 -76 -106 -97
-186 -137 -123 -60 -207 -80 -340 -79 -496 2 -847 473 -708 948 108 365 486
595 856 518z"></path><path d="M3791 1888 c-5 -18 -51 -170 -101 -338 -51 -168 -94 -307 -96 -309
-3 -3 -37 27 -77 67 l-73 72 -57 -58 -57 -58 138 -137 c216 -214 201 -227 362
313 67 223 123 412 126 421 3 12 -12 21 -70 37 -41 12 -77 22 -79 22 -3 0 -10
-15 -16 -32z"></path><path d="M580 2725 l0 -85 825 0 825 0 0 85 0 85 -825 0 -825 0 0 -85z"></path><path d="M580 2395 l0 -85 825 0 825 0 0 85 0 85 -825 0 -825 0 0 -85z"></path><path d="M580 2065 l0 -85 825 0 825 0 0 85 0 85 -825 0 -825 0 0 -85z"></path><path d="M580 1075 l0 -85 825 0 825 0 0 85 0 85 -825 0 -825 0 0 -85z"></path><path d="M580 745 l0 -85 825 0 825 0 0 85 0 85 -825 0 -825 0 0 -85z"></path><path d="M580 415 l0 -85 825 0 825 0 0 85 0 85 -825 0 -825 0 0 -85z"></path></g></svg><svg viewBox="0 0 446.000000 446.000000" preserveAspectRatio="xMidYMid meet" id="handshake"><g transform="translate(0.000000,446.000000) scale(0.100000,-0.100000)"
fill="#000000" stroke="none"><path d="M791 3326 c-711 -711 -784 -787 -784 -816 0 -28 25 -57 219 -251 183
-183 225 -219 248 -219 23 0 49 20 125 95 l97 94 33 -57 c19 -31 77 -122 130
-202 53 -80 97 -149 99 -153 2 -4 -28 -41 -67 -82 -57 -60 -73 -85 -87 -131
-49 -171 62 -340 237 -361 47 -6 49 -7 49 -38 0 -123 115 -243 250 -261 l47
-6 6 -55 c13 -122 113 -218 248 -237 45 -7 46 -7 47 -47 4 -88 68 -180 154
-223 41 -21 66 -26 122 -26 88 0 138 22 209 89 l53 51 34 -35 c37 -39 110 -73
173 -81 57 -8 140 16 195 56 33 24 90 102 105 143 1 4 23 -1 47 -12 31 -14 66
-21 116 -21 121 0 207 59 255 176 l22 52 36 -10 c80 -22 203 15 262 79 62 66
93 177 71 256 -9 33 -8 39 6 43 137 42 216 142 216 273 0 94 -27 146 -126 247
l-81 84 63 122 c35 68 90 167 123 221 l60 98 77 -76 c59 -57 84 -75 106 -75
23 0 66 38 246 218 201 200 218 220 218 252 0 33 -46 81 -787 822 -747 747
-790 788 -823 788 -33 0 -52 -16 -253 -218 -181 -182 -217 -223 -217 -246 0
-23 21 -50 102 -133 89 -90 100 -105 88 -117 -8 -8 -105 -84 -214 -169 l-200
-154 -122 81 c-68 45 -151 98 -185 119 l-62 38 151 153 c126 126 152 157 152
181 0 25 -34 64 -218 247 -200 200 -220 218 -252 218 -33 0 -82 -47 -819 -784z
m972 466 l147 -147 -718 -718 -717 -717 -150 150 -150 150 715 715 c393 393
717 715 720 715 3 0 72 -66 153 -148z m1802 -572 l720 -720 -150 -150 -150
-150 -722 722 -723 723 147 147 c81 82 150 148 153 148 3 0 329 -324 725 -720z
m-372 -428 l509 -509 -64 -104 c-36 -57 -91 -155 -123 -217 l-59 -113 -360
358 c-504 501 -500 496 -533 496 -17 0 -148 -63 -327 -157 -326 -172 -358
-186 -421 -186 -36 0 -48 5 -69 30 -44 53 -51 117 -19 174 10 19 933 735 948
735 6 1 239 -228 518 -507z m-1339 305 c61 -38 125 -79 143 -91 l33 -23 -185
-142 c-101 -78 -196 -154 -210 -169 -71 -76 -88 -195 -43 -294 56 -121 125
-164 253 -156 84 6 117 20 514 229 l193 102 528 -530 c471 -473 530 -535 540
-574 22 -82 -32 -165 -117 -176 -27 -3 -51 0 -74 12 -19 10 -194 179 -389 377
-320 323 -358 359 -387 358 -35 0 -73 -38 -73 -73 0 -14 132 -154 404 -427
428 -429 436 -439 422 -515 -14 -73 -89 -124 -164 -110 -32 6 -92 61 -447 416
-437 435 -434 433 -486 391 -15 -13 -22 -30 -22 -51 0 -29 35 -68 360 -394
199 -199 366 -372 372 -384 38 -76 -16 -180 -103 -195 -71 -14 -83 -4 -471
382 -390 387 -390 387 -497 405 -31 5 -38 10 -38 29 0 50 -31 125 -71 170 -50
57 -104 86 -174 93 l-52 6 -6 54 c-14 133 -139 243 -277 243 -76 0 -136 -27
-204 -91 l-63 -58 -80 122 c-44 67 -104 162 -133 210 l-54 88 439 439 439 439
36 -22 c19 -11 84 -52 144 -90z m-447 -1197 c46 -28 66 -72 60 -133 -4 -48 -7
-52 -163 -208 -166 -167 -196 -186 -260 -175 -42 8 -100 64 -109 105 -14 66 0
89 164 254 86 88 165 163 176 167 36 15 99 11 132 -10z m298 -300 c36 -22 65
-73 65 -114 0 -53 -31 -94 -181 -243 -126 -124 -161 -153 -191 -158 -110 -21
-198 86 -157 192 12 31 267 295 314 324 40 25 109 25 150 -1z m309 -310 c47
-41 62 -90 46 -143 -9 -32 -44 -73 -148 -180 -75 -76 -152 -148 -171 -159 -41
-26 -111 -27 -147 -3 -57 37 -81 124 -50 183 16 30 290 304 321 321 11 5 41
11 67 11 39 0 54 -6 82 -30z m253 -271 c70 -26 112 -102 93 -169 -14 -51 -313
-348 -361 -359 -75 -16 -150 28 -169 99 -18 67 -2 93 162 258 178 180 207 197
275 171z m265 -236 c65 -69 81 -124 54 -187 -39 -93 -158 -112 -231 -36 l-28
29 70 75 c39 40 77 90 84 110 7 20 16 36 19 36 4 0 18 -12 32 -27z"></path></g></svg><svg viewBox="0 0 140.000000 140.000000" preserveAspectRatio="xMidYMid meet" id="location"><g transform="translate(0.000000,140.000000) scale(0.100000,-0.100000)"
fill="#000000" stroke="none"><path d="M522 1381 c-142 -39 -242 -99 -340 -206 -116 -127 -182 -297 -182
-469 0 -125 21 -214 76 -326 39 -80 61 -109 133 -180 94 -93 175 -143 295
-179 101 -31 287 -30 390 3 118 37 201 89 296 185 132 132 196 276 207 461 17
307 -180 593 -484 702 -87 31 -292 35 -391 9z m263 -186 c151 -39 255 -170
257 -321 1 -139 -75 -298 -271 -566 -31 -43 -61 -77 -66 -78 -25 0 -227 297
-280 413 -73 158 -81 253 -32 359 46 102 131 169 247 194 74 16 77 16 145 -1z"></path><path d="M607 1029 c-20 -11 -49 -38 -65 -61 -22 -34 -27 -53 -27 -104 0 -53
5 -69 30 -106 97 -139 301 -104 344 58 23 86 -22 180 -106 223 -35 18 -133 13
-176 -10z"></path></g></svg><svg viewBox="0 0 140.000000 140.000000" preserveAspectRatio="xMidYMid meet" id="mail"><g transform="translate(0.000000,140.000000) scale(0.100000,-0.100000)"
fill="#000000" stroke="none"><path d="M559 1386 c-148 -31 -269 -98 -368 -202 -123 -128 -180 -263 -188
-439 -6 -142 12 -230 73 -354 38 -77 62 -109 128 -175 90 -90 160 -136 265
-172 260 -91 533 -25 733 176 135 137 195 302 186 513 -6 131 -33 219 -104
333 -51 83 -167 197 -245 241 -138 79 -329 110 -480 79z m571 -418 c0 -15 -54
-50 -165 -107 -44 -23 -116 -61 -160 -86 -44 -25 -93 -45 -108 -45 -16 0 -75
26 -135 59 -59 32 -141 75 -182 96 -103 51 -136 75 -118 86 7 5 205 9 441 9
335 0 427 -3 427 -12z m-737 -125 c295 -159 289 -157 333 -143 36 12 186 93
356 191 36 22 69 39 72 39 3 0 6 -109 6 -243 0 -203 -3 -246 -16 -265 l-15
-22 -439 0 c-385 0 -440 2 -454 16 -14 13 -16 51 -16 265 0 137 2 249 5 249 3
0 79 -39 168 -87z"></path></g></svg><svg viewBox="0 0 140.000000 140.000000" preserveAspectRatio="xMidYMid meet" id="phone"><g transform="translate(0.000000,140.000000) scale(0.100000,-0.100000)"
fill="#000000" stroke="none"><path d="M560 1385 c-256 -55 -449 -227 -526 -470 -115 -361 80 -747 441 -871
72 -25 94 -28 220 -29 121 0 149 3 210 24 233 78 393 244 466 481 33 106 33
264 0 370 -39 129 -86 206 -180 300 -175 174 -400 244 -631 195z m-41 -301
c92 -96 96 -112 55 -182 l-26 -44 -26 39 c-29 44 -151 186 -163 191 -28 11 1
-40 69 -120 116 -139 107 -123 83 -154 -12 -15 -21 -36 -21 -47 0 -87 199
-277 290 -277 13 0 34 10 46 21 26 25 10 33 148 -78 43 -35 88 -66 102 -69 37
-10 29 -23 -33 -52 -81 -37 -187 -42 -282 -13 -176 53 -377 252 -457 450 -25
62 -33 157 -19 216 20 79 105 205 138 205 8 0 51 -39 96 -86z m518 -502 c32
-27 77 -70 101 -96 46 -50 46 -60 0 -104 l-25 -22 -122 97 -121 97 37 38 c20
21 45 38 55 38 9 0 43 -22 75 -48z"></path></g></svg><svg viewBox="0 0 512.000000 512.000000" preserveAspectRatio="xMidYMid meet" id="result"><g transform="translate(0.000000,512.000000) scale(0.100000,-0.100000)"
fill="#000000" stroke="none"><path d="M2812 5087 c-46 -49 -36 -67 143 -247 91 -91 165 -169 165 -173 0 -4
-564 -7 -1253 -7 l-1254 0 -19 -21 c-18 -20 -19 -45 -19 -644 0 -599 1 -624
19 -644 29 -32 88 -29 115 5 21 26 21 35 21 590 l0 564 1197 0 1197 0 -167
-169 c-146 -147 -167 -172 -167 -200 0 -40 39 -81 77 -81 23 0 71 43 275 248
229 228 248 250 248 282 0 32 -19 54 -243 277 -225 225 -246 243 -278 243 -24
0 -43 -7 -57 -23z"></path><path d="M4161 5090 c-40 -9 -116 -39 -169 -65 -79 -39 -111 -63 -183 -134
-97 -97 -153 -187 -196 -316 -23 -70 -26 -97 -27 -215 -1 -96 4 -160 17 -220
53 -245 199 -606 401 -989 133 -251 277 -499 300 -513 26 -17 72 -8 98 20 83
89 432 762 563 1089 140 346 181 607 127 798 -80 278 -297 484 -582 550 -89
20 -256 18 -349 -5z m379 -164 c95 -33 154 -69 228 -140 105 -100 162 -214
183 -363 22 -161 -41 -406 -200 -775 -97 -226 -383 -776 -405 -779 -12 -1
-124 198 -251 446 -314 618 -412 978 -331 1219 34 101 66 155 138 232 90 96
208 162 331 184 84 15 228 4 307 -24z"></path><path d="M4267 4780 c-75 -13 -156 -58 -220 -121 -99 -99 -141 -228 -119 -362
60 -348 477 -478 722 -226 155 160 158 412 9 574 -47 51 -117 98 -175 119 -55
19 -158 27 -217 16z m188 -174 c56 -26 119 -90 142 -145 9 -20 15 -64 15 -99
1 -121 -78 -223 -199 -258 -167 -49 -333 78 -334 255 -1 196 201 329 376 247z"></path><path d="M1495 3544 c-170 -91 -566 -301 -880 -466 -314 -165 -579 -308 -590
-319 -20 -19 -20 -35 -23 -809 l-2 -788 22 -25 c13 -14 417 -273 899 -576 606
-381 885 -551 904 -551 31 0 1756 911 1793 947 l22 22 0 859 c0 804 -1 861
-17 880 -10 12 -400 230 -868 485 -887 484 -929 507 -942 507 -4 0 -147 -75
-318 -166z m1075 -416 c404 -221 756 -413 782 -428 l48 -26 -215 -117 c-118
-64 -220 -117 -226 -117 -14 0 -1578 853 -1579 861 0 12 426 238 440 233 8 -3
346 -186 750 -406z m-515 -373 l824 -450 1 -246 0 -246 -132 -71 -133 -71 -5
244 c-5 228 -6 246 -25 264 -11 10 -386 215 -833 454 l-814 435 44 25 c136 78
215 117 230 115 10 -2 389 -205 843 -453z m-483 -207 c439 -237 797 -432 795
-433 -16 -13 -547 -295 -554 -295 -8 0 -1558 873 -1570 884 -3 3 512 275 521
276 5 0 369 -194 808 -432z m-603 -433 l761 -430 0 -728 0 -728 -52 34 c-29
18 -383 240 -785 492 l-733 460 0 678 0 678 24 -13 c12 -7 366 -206 785 -443z
m2521 -309 c0 -575 -3 -736 -12 -744 -7 -6 -339 -184 -738 -397 -399 -213
-753 -402 -787 -421 l-63 -35 0 733 0 733 278 153 c153 83 282 152 285 152 4
0 7 -107 7 -238 0 -226 1 -239 20 -260 13 -13 33 -22 51 -22 34 0 424 207 474
252 l30 26 3 284 3 283 212 117 c117 65 218 118 225 118 9 0 12 -153 12 -734z"></path><path d="M390 1950 c-31 -31 -36 -68 -13 -98 30 -40 1039 -625 1080 -625 55
-1 91 48 72 100 -12 35 44 0 -559 350 -333 193 -514 293 -532 293 -15 0 -37
-9 -48 -20z"></path><path d="M384 1567 c-32 -28 -36 -80 -7 -108 10 -9 249 -151 531 -315 369
-213 523 -297 545 -297 20 0 38 8 54 27 29 34 29 58 1 90 -19 20 -912 551
-1025 610 -43 22 -67 20 -99 -7z"></path><path d="M4555 2410 c-11 -4 -127 -116 -257 -247 -206 -206 -238 -243 -238
-269 0 -31 32 -70 60 -74 42 -6 66 12 222 167 l168 167 0 -927 0 -927 -669 0
c-447 0 -678 -4 -699 -11 -60 -21 -67 -108 -12 -136 19 -10 188 -13 751 -13
720 0 727 0 753 21 l26 20 0 987 0 987 163 -162 c89 -89 173 -166 187 -171 49
-18 99 18 100 73 0 25 -34 63 -242 272 -152 151 -252 244 -268 247 -14 3 -34
1 -45 -4z"></path></g></svg><svg viewBox="0 0 140.000000 140.000000" preserveAspectRatio="xMidYMid meet" id="time"><g transform="translate(0.000000,140.000000) scale(0.100000,-0.100000)"
fill="#000000" stroke="none"><path d="M565 1393 c-53 -11 -171 -57 -218 -85 -160 -94 -282 -262 -323 -445
-25 -112 -16 -283 20 -388 71 -208 236 -374 440 -442 72 -24 96 -27 221 -27
127 -1 147 2 213 26 359 130 551 504 446 868 -33 114 -92 209 -188 305 -145
144 -272 196 -477 194 -63 -1 -123 -3 -134 -6z m308 -221 c128 -46 247 -163
298 -291 27 -70 37 -210 19 -290 -55 -252 -310 -430 -560 -392 -245 37 -430
253 -430 501 1 218 144 411 359 482 76 25 232 20 314 -10z"></path><path d="M590 1106 c-182 -51 -311 -219 -310 -404 1 -214 144 -383 357 -423
214 -40 433 121 475 350 29 153 -48 334 -179 420 -96 64 -235 87 -343 57z
m134 -142 c13 -12 16 -41 16 -148 l0 -133 41 -33 c133 -106 190 -176 159 -195
-16 -10 -49 13 -162 113 l-108 95 0 133 c0 168 13 209 54 168z"></path></g></svg></svg>